<svg width="50" height="48" viewBox="0 0 204 186" fill="none" xmlns="http://www.w3.org/2000/svg" xmlns:xlink="http://www.w3.org/1999/xlink">
<path d="M136.481,166.847L69.999,166.847C65.66,166.847 62.143,170.844 62.143,175.774L62.143,177.073C62.143,182.003 65.66,186 69.999,186L136.481,186C140.82,186 144.337,182.003 144.337,177.073L144.337,175.774C144.337,170.844 140.82,166.847 136.481,166.847Z" fill="#263238"/>
<rect  x="100.386" y="11.404" width="5.74" height="32.974" fill="#263238"/>
<path d="M187.133,143.043C196.448,143.043 204,134.463 204,123.879C204,113.294 196.448,104.714 187.133,104.714C177.818,104.714 170.267,113.294 170.267,123.879C170.267,134.463 177.818,143.043 187.133,143.043Z" fill="#F6F1F1"/>
<path d="M16.866,141.78C26.181,141.78 33.733,133.2 33.733,122.615C33.733,112.031 26.181,103.451 16.866,103.451C7.551,103.451 0,112.031 0,122.615C0,133.2 7.551,141.78 16.866,141.78Z" fill="#F6F1F1"/>
<path d="M99.916,37.236C99.916,37.236 31.339,36.301 20.501,103.839C9.662,171.378 67.637,172.592 84.321,173.867C91.878,174.45 108.06,174.511 122.34,174.219C153.957,173.6 176.295,166.653 183.895,133.327C184.8,129.42 185.369,125.421 185.594,121.389C187.593,84.808 165.863,35.439 99.916,37.236Z" fill="#F6F1F1"/>
<path d="M149.66,140.031L50.033,141.792C47.547,141.842 45.077,141.334 42.764,140.298C40.451,139.262 38.341,137.718 36.554,135.754C34.767,133.79 33.338,131.445 32.35,128.853C31.361,126.261 30.832,123.472 30.794,120.648C30.751,117.823 31.199,115.016 32.112,112.388C33.025,109.76 34.385,107.362 36.115,105.332C37.844,103.301 39.909,101.678 42.19,100.555C44.472,99.432 46.926,98.831 49.413,98.787L149.04,97.026C151.526,96.975 153.997,97.481 156.31,98.517C158.624,99.552 160.735,101.096 162.522,103.061C164.309,105.025 165.738,107.371 166.726,109.964C167.714,112.556 168.242,115.345 168.279,118.17C168.323,120.996 167.876,123.803 166.963,126.432C166.051,129.061 164.691,131.46 162.961,133.49C161.232,135.521 159.166,137.144 156.884,138.266C154.602,139.389 152.147,139.989 149.66,140.031Z" fill="#263238"/>
<path d="M70.736,118.304C70.504,119.643 69.929,120.873 69.082,121.84C68.235,122.807 67.154,123.466 65.977,123.735C64.8,124.005 63.579,123.871 62.469,123.352C61.359,122.833 60.409,121.951 59.74,120.819C59.07,119.687 58.711,118.354 58.708,116.99C58.705,115.626 59.058,114.291 59.723,113.155C60.387,112.019 61.333,111.132 62.441,110.606C63.549,110.081 64.77,109.941 65.948,110.203C66.73,110.378 67.475,110.726 68.139,111.227C68.804,111.729 69.374,112.374 69.819,113.126C70.264,113.879 70.574,114.723 70.731,115.612C70.888,116.5 70.89,117.415 70.736,118.304Z" fill="#FFFFFF"/>
<path d="M140.307,117.041C140.078,118.381 139.503,119.613 138.657,120.581C137.811,121.55 136.731,122.211 135.554,122.482C134.376,122.753 133.155,122.621 132.044,122.103C130.932,121.585 129.981,120.704 129.311,119.572C128.641,118.439 128.281,117.106 128.277,115.741C128.274,114.377 128.627,113.041 129.291,111.904C129.956,110.768 130.902,109.88 132.011,109.355C133.119,108.829 134.34,108.689 135.519,108.952C137.097,109.305 138.488,110.355 139.386,111.871C140.284,113.388 140.615,115.247 140.307,117.041Z" fill="#FFFFFF"/>
<path d="M103.261,21.497C108.485,21.497 112.72,16.684 112.72,10.748C112.72,4.812 108.485,0 103.261,0C98.037,0 93.802,4.812 93.802,10.748C93.802,16.684 98.037,21.497 103.261,21.497Z" fill="#F6F1F1"/>
<path d="M88.148,115.122C88.596,115.183 88.372,117.551 89.697,120.794C90.448,122.655 91.542,124.312 92.904,125.652C94.501,127.248 96.488,128.252 98.601,128.53C100.725,128.686 102.84,128.11 104.672,126.878C106.222,125.854 107.563,124.467 108.605,122.81C110.422,119.931 110.583,117.515 111.031,117.551C111.213,117.551 111.395,118.158 111.395,119.3C111.354,120.926 110.989,122.521 110.326,123.964C109.33,126.144 107.858,127.996 106.051,129.344C103.816,131.133 101.095,131.96 98.373,131.677C95.651,131.395 93.106,130.021 91.194,127.801C89.633,126.105 88.484,123.98 87.859,121.632C87.413,120.065 87.296,118.401 87.517,116.774C87.699,115.644 87.977,115.086 88.148,115.122Z" fill="#FFFFFF"/>
<path d="M179.459,146.59C179.353,146.59 180.582,144.404 181.768,140.578C183.244,135.568 184.177,130.372 184.547,125.105C184.975,119.857 185.082,114.582 184.868,109.317C184.793,107.289 184.707,105.673 184.622,104.459C184.55,103.871 184.532,103.277 184.568,102.686C184.705,103.258 184.795,103.843 184.836,104.434C184.985,105.564 185.135,107.204 185.263,109.292C185.598,114.6 185.545,119.929 185.103,125.227C184.727,130.543 183.731,135.778 182.142,140.796C181.639,142.31 181.032,143.776 180.325,145.181C180.073,145.678 179.783,146.149 179.459,146.59Z" fill="#263238"/>
<path d="M20.629,101.58C20.568,102.17 20.457,102.752 20.298,103.317C20.159,103.864 20.009,104.532 19.87,105.333C19.731,106.135 19.517,107.009 19.389,108.017C19.014,110.358 18.764,112.723 18.641,115.098C18.497,118.004 18.533,120.918 18.748,123.818C18.987,126.713 19.401,129.586 19.988,132.416C20.478,134.732 21.092,137.011 21.826,139.242C22.115,140.201 22.446,141.039 22.713,141.792C22.98,142.545 23.237,143.177 23.451,143.687C23.694,144.211 23.895,144.76 24.049,145.327C23.745,144.845 23.48,144.333 23.258,143.796C22.956,143.189 22.681,142.565 22.435,141.926C22.136,141.197 21.773,140.359 21.463,139.4C20.669,137.175 20.012,134.89 19.496,132.562C18.87,129.705 18.435,126.798 18.192,123.866C17.974,120.938 17.953,117.994 18.128,115.061C18.277,112.665 18.57,110.283 19.004,107.932C19.165,106.924 19.389,106.038 19.571,105.248C19.752,104.459 19.923,103.791 20.084,103.244C20.225,102.674 20.408,102.117 20.629,101.58Z" fill="#263238"/>
<path d="M91.226,42.289C91.144,42.298 91.062,42.298 90.98,42.289L90.264,42.374C89.623,42.447 88.682,42.471 87.474,42.629C84.067,43.005 80.685,43.642 77.352,44.536C60.117,49.021 44.915,60.499 34.599,76.817C29.615,84.658 25.841,93.406 23.44,102.686C23.066,103.997 22.863,105.042 22.681,105.734L22.478,106.536C22.459,106.628 22.43,106.718 22.392,106.803C22.378,106.71 22.378,106.616 22.392,106.523C22.392,106.305 22.478,106.038 22.542,105.71C22.692,105.005 22.852,103.949 23.194,102.613C24.086,98.84 25.23,95.149 26.614,91.573C31.183,79.689 38.138,69.187 46.922,60.907C55.744,52.69 66.136,46.933 77.267,44.098C80.619,43.233 84.024,42.661 87.453,42.386C88.672,42.265 89.591,42.277 90.253,42.24L90.98,42.24C91.151,42.265 91.226,42.277 91.226,42.289Z" fill="#FFFFFF"/>
<path d="M24.135,135.781C23.706,135.029 23.375,134.211 23.151,133.352C21.884,129.293 21.293,125.001 21.409,120.697C21.379,119.803 21.472,118.909 21.687,118.049C21.858,118.049 21.623,122.105 22.307,127.012C22.991,131.918 24.295,135.708 24.135,135.781Z" fill="#FFFFFF"/>
<path d="M6.146,129.502C6.146,129.502 5.9,129.307 5.569,128.846C5.096,128.192 4.691,127.479 4.361,126.72C3.219,124.21 2.783,121.362 3.109,118.561C3.436,115.76 4.511,113.139 6.188,111.053C6.68,110.415 7.236,109.844 7.845,109.353C8.054,109.153 8.293,108.997 8.551,108.892C8.615,108.989 7.653,109.73 6.488,111.321C4.959,113.401 3.98,115.932 3.666,118.619C3.352,121.307 3.715,124.04 4.713,126.502C5.462,128.433 6.221,129.429 6.146,129.502Z" fill="#FFFFFF"/>
<path d="M103.871,3.255C103.036,3.151 102.196,3.13 101.359,3.194C100.362,3.294 99.398,3.651 98.542,4.239C97.685,4.828 96.959,5.631 96.418,6.588C95.878,7.545 95.537,8.629 95.422,9.759C95.308,10.889 95.423,12.033 95.758,13.104C96.047,13.993 96.404,14.851 96.827,15.667C96.827,15.667 96.613,15.521 96.314,15.133C95.903,14.57 95.578,13.934 95.352,13.25C94.944,12.116 94.783,10.887 94.881,9.667C94.98,8.447 95.336,7.272 95.919,6.242C96.502,5.211 97.295,4.355 98.231,3.747C99.166,3.138 100.217,2.794 101.295,2.745C101.934,2.694 102.577,2.764 103.197,2.951C103.678,3.036 103.871,3.218 103.871,3.255Z" fill="#FFFFFF"/>
<path d="M197.031,114.77C196.913,114.916 195.257,113.106 192.756,111.746C190.254,110.385 187.978,109.985 187.999,109.79C189.742,109.741 191.464,110.219 192.991,111.175C194.597,111.939 195.993,113.18 197.031,114.77Z" fill="#FFFFFF"/>
<path d="M133.2,93.103C133.2,93.273 120.074,93.419 103.892,93.419C87.71,93.419 74.573,93.273 74.573,93.103C74.573,92.933 87.699,92.787 103.892,92.787C120.085,92.787 133.2,92.909 133.2,93.103Z" fill="#FFFFFF"/>
<path d="M83.177,169.046C83.017,169.097 82.852,169.126 82.686,169.131L81.254,169.276C80.634,169.337 79.875,169.386 78.988,169.41C78.1,169.434 77.096,169.483 75.984,169.41C73.75,169.41 71.1,169.228 68.16,168.876C64.979,168.455 61.821,167.835 58.701,167.017C55.588,166.169 52.519,165.123 49.509,163.884C47.056,162.864 44.652,161.7 42.305,160.398C41.236,159.864 40.413,159.305 39.633,158.832C38.852,158.358 38.19,157.933 37.655,157.617L36.426,156.767C36.28,156.675 36.144,156.565 36.02,156.439C36.02,156.439 36.191,156.439 36.48,156.658L37.762,157.399C38.307,157.739 38.981,158.139 39.772,158.613C40.563,159.087 41.46,159.573 42.476,160.083C44.485,161.151 46.933,162.293 49.691,163.422C55.684,165.864 61.902,167.526 68.224,168.378C71.132,168.766 73.772,168.985 75.984,169.046C77.053,169.118 78.122,169.046 78.988,169.046C79.853,169.046 80.623,169.046 81.243,169.046L82.675,169.046C82.841,169.014 83.011,169.014 83.177,169.046Z" fill="#FFFFFF"/>
</svg>
