<svg width="968" height="886" viewBox="0 0 968 886" fill="none" xmlns="http://www.w3.org/2000/svg" xmlns:xlink="http://www.w3.org/1999/xlink">
<g style="mix-blend-mode:color-dodge" filter="url(#filter11_700)">
<path d="M473.312,0L599.528,0L768.496,48.617L894.714,187.227L968,401.348L968,566.984L894.714,705.294L810.23,818.212L599.528,872L342.006,872L110.948,775.8L0,615.468L0,438.586L110.948,187.227L294.166,48.617L473.312,0Z" fill="#263238" fill-opacity="0.6" stroke="#000000" stroke-width="1" stroke-miterlimit="3.999327"/>
</g>
<path d="M289.304,567.174L182.365,556.357L137.071,455.904L101.882,464.861C101.882,464.861 127.881,571.019 156.976,587.468C186.072,603.917 285.47,606.869 285.47,606.869L289.304,567.174Z" fill="#F6F1F1"/>
<path d="M310.707,633.812C336.9,633.812 358.134,613.063 358.134,587.468C358.134,561.873 336.9,541.124 310.707,541.124C284.514,541.124 263.28,561.873 263.28,587.468C263.28,613.063 284.514,633.812 310.707,633.812Z" fill="#263238"/>
<path d="M310.707,633.861C299.717,633.861 289.067,630.138 280.571,623.325C272.076,616.512 266.261,607.031 264.117,596.499C261.973,585.966 263.633,575.033 268.813,565.562C273.994,556.091 282.375,548.668 292.529,544.558C302.682,540.449 313.98,539.906 324.497,543.024C335.013,546.141 344.099,552.726 350.204,561.655C356.31,570.584 359.058,581.306 357.981,591.993C356.904,602.68 352.068,612.672 344.297,620.266C339.896,624.589 334.661,628.017 328.895,630.351C323.13,632.684 316.948,633.878 310.707,633.861ZM310.707,541.174C299.746,541.163 289.121,544.866 280.641,551.652C272.161,558.438 266.352,567.887 264.202,578.389C262.053,588.891 263.696,599.797 268.853,609.248C274.009,618.699 282.36,626.11 292.481,630.219C302.603,634.328 313.87,634.881 324.362,631.783C334.854,628.685 343.922,622.128 350.021,613.229C356.12,604.331 358.873,593.641 357.811,582.981C356.749,572.321 351.937,562.351 344.195,554.769C339.81,550.452 334.593,547.028 328.845,544.694C323.096,542.36 316.932,541.164 310.707,541.174Z" fill="#263238"/>
<path d="M164.466,596.375C184.111,596.375 200.036,580.813 200.036,561.617C200.036,542.421 184.111,526.859 164.466,526.859C144.821,526.859 128.896,542.421 128.896,561.617C128.896,580.813 144.821,596.375 164.466,596.375Z" fill="#263238"/>
<path d="M116.912,472.353C132.968,472.353 145.983,459.635 145.983,443.946C145.983,428.258 132.968,415.54 116.912,415.54C100.857,415.54 87.842,428.258 87.842,443.946C87.842,459.635 100.857,472.353 116.912,472.353Z" fill="#263238"/>
<path d="M135.834,424.903L167.084,424.903L167.084,438.106L135.834,438.106C134.188,438.106 132.61,437.459 131.446,436.308C130.283,435.157 129.629,433.596 129.629,431.968L129.629,431.066C129.626,430.258 129.784,429.457 130.094,428.709C130.404,427.962 130.861,427.282 131.437,426.71C132.014,426.137 132.699,425.683 133.453,425.373C134.208,425.063 135.017,424.903 135.834,424.903Z" transform="rotate(326.293 148.357 431.504)" fill="#263238"/>
<path d="M122.944,400.116L152.815,400.116C153.046,400.116 153.268,400.21 153.431,400.376C153.594,400.542 153.686,400.768 153.686,401.003L153.686,412.552C153.686,412.787 153.594,413.012 153.431,413.179C153.268,413.345 153.046,413.438 152.815,413.438L122.944,413.438C121.326,413.438 119.775,412.784 118.632,411.621C117.488,410.457 116.845,408.879 116.845,407.233L116.845,406.321C116.845,404.676 117.488,403.097 118.632,401.934C119.775,400.77 121.326,400.116 122.944,400.116Z" transform="rotate(221.193 135.266 406.777)" fill="#263238"/>
<path d="M101.96,397.186L131.741,397.186C131.971,397.186 132.192,397.279 132.355,397.446C132.518,397.612 132.609,397.838 132.609,398.073L132.609,409.636C132.609,409.871 132.518,410.097 132.355,410.263C132.192,410.43 131.971,410.523 131.741,410.523L101.96,410.523C100.348,410.523 98.801,409.869 97.661,408.704C96.521,407.539 95.88,405.959 95.88,404.311L95.88,403.398C95.88,401.751 96.521,400.17 97.661,399.005C98.801,397.84 100.348,397.186 101.96,397.186Z" transform="rotate(167.221 114.245 403.855)" fill="#263238"/>
<path d="M75.156,407.011L105.293,407.011C105.527,407.011 105.75,407.104 105.915,407.269C106.08,407.434 106.172,407.658 106.172,407.892L106.172,419.367C106.172,419.601 106.08,419.825 105.915,419.99C105.75,420.155 105.527,420.248 105.293,420.248L75.156,420.248C73.525,420.248 71.96,419.598 70.806,418.442C69.652,417.286 69.004,415.717 69.004,414.082L69.004,413.176C69.004,411.541 69.652,409.973 70.806,408.817C71.96,407.661 73.525,407.011 75.156,407.011Z" transform="rotate(110.08 87.588 413.629)" fill="#263238"/>
<rect  x="706.496" y="599.352" width="34.783" height="230.602" fill="#F6F1F1"/>
<path d="M662.116,638.625C688.309,638.625 709.543,617.876 709.543,592.281C709.543,566.686 688.309,545.937 662.116,545.937C635.923,545.937 614.69,566.686 614.69,592.281C614.69,617.876 635.923,638.625 662.116,638.625Z" fill="#263238"/>
<path d="M662.218,638.724C654.777,638.728 647.44,637.024 640.796,633.751C634.152,630.477 628.387,625.725 623.966,619.877C619.545,614.029 616.591,607.249 615.341,600.081C614.091,592.914 614.581,585.56 616.771,578.611C619.368,570.415 624.239,563.083 630.844,557.431C637.449,551.778 645.529,548.026 654.185,546.591C662.842,545.156 671.736,546.095 679.879,549.303C688.022,552.511 695.095,557.863 700.313,564.764C705.53,571.665 708.686,579.844 709.432,588.393C710.177,596.941 708.482,605.525 704.534,613.188C700.587,620.852 694.542,627.296 687.072,631.804C679.601,636.312 670.998,638.707 662.218,638.724ZM662.218,545.987C653.453,545.996 644.862,548.38 637.401,552.876C629.94,557.371 623.901,563.801 619.957,571.45C616.013,579.099 614.318,587.667 615.06,596.201C615.803,604.736 618.953,612.902 624.162,619.79C629.37,626.679 636.433,632.021 644.563,635.222C652.693,638.422 661.573,639.356 670.214,637.919C678.855,636.482 686.918,632.731 693.508,627.083C700.097,621.434 704.954,614.111 707.537,605.926C711.225,594.198 710,581.518 704.131,570.671C698.262,559.824 688.228,551.696 676.233,548.071C671.645,546.683 666.868,545.98 662.065,545.987L662.218,545.987Z" fill="#263238"/>
<path d="M723.888,756.246C743.533,756.246 759.458,740.684 759.458,721.488C759.458,702.292 743.533,686.73 723.888,686.73C704.243,686.73 688.318,702.292 688.318,721.488C688.318,740.684 704.243,756.246 723.888,756.246Z" fill="#263238"/>
<path d="M723.07,862.813C739.126,862.813 752.141,850.095 752.141,834.407C752.141,818.718 739.126,806 723.07,806C707.015,806 694,818.718 694,834.407C694,850.095 707.015,862.813 723.07,862.813Z" fill="#263238"/>
<path d="M739.196,844.661L770.478,844.661L770.478,857.746L739.196,857.746C737.546,857.746 735.964,857.105 734.797,855.964C733.631,854.823 732.975,853.276 732.975,851.662L732.975,850.769C732.972,849.968 733.131,849.174 733.442,848.433C733.753,847.692 734.211,847.019 734.789,846.451C735.367,845.884 736.053,845.433 736.81,845.126C737.566,844.819 738.377,844.661 739.196,844.661Z" transform="rotate(-271.728 751.727 851.203)" fill="#263238"/>
<path d="M719.952,859.389L750.506,859.389C750.743,859.389 750.969,859.48 751.137,859.641C751.304,859.802 751.398,860.021 751.398,860.249L751.398,871.451C751.398,871.679 751.304,871.898 751.137,872.059C750.969,872.22 750.743,872.311 750.506,872.311L719.952,872.311C719.133,872.301 718.323,872.136 717.57,871.824C716.817,871.513 716.135,871.062 715.563,870.496C714.991,869.93 714.54,869.261 714.236,868.527C713.931,867.793 713.78,867.009 713.79,866.218L713.79,865.334C713.81,863.763 714.466,862.262 715.617,861.151C716.768,860.041 718.324,859.408 719.952,859.389Z" transform="rotate(-220.614 732.594 865.85)" fill="#263238"/>
<path d="M682.938,846.655L713.336,846.655C713.452,846.655 713.567,846.678 713.675,846.722C713.782,846.766 713.88,846.83 713.962,846.911C714.045,846.993 714.11,847.089 714.155,847.195C714.199,847.301 714.222,847.415 714.222,847.53L714.222,858.931C714.222,859.046 714.199,859.16 714.155,859.266C714.11,859.372 714.045,859.469 713.962,859.55C713.88,859.631 713.782,859.696 713.675,859.74C713.567,859.784 713.452,859.806 713.336,859.806L682.938,859.806C681.292,859.806 679.714,859.161 678.55,858.012C677.386,856.863 676.732,855.305 676.732,853.681L676.732,852.781C676.732,851.156 677.386,849.598 678.55,848.449C679.714,847.3 681.292,846.655 682.938,846.655Z" transform="rotate(-61.544 695.477 853.231)" fill="#263238"/>
<path d="M702.913,859.41L733.457,859.41C733.693,859.41 733.92,859.501 734.087,859.662C734.254,859.823 734.348,860.042 734.348,860.27L734.348,871.45C734.348,871.678 734.254,871.896 734.087,872.058C733.92,872.219 733.693,872.31 733.457,872.31L702.913,872.31C701.259,872.31 699.673,871.675 698.503,870.546C697.334,869.418 696.677,867.886 696.677,866.29L696.677,865.405C696.683,863.813 697.343,862.288 698.512,861.165C699.681,860.041 701.263,859.41 702.913,859.41Z" transform="rotate(-147.209 715.512 865.86)" fill="#263238"/>
<path d="M296.616,539.239C296.616,539.239 300.043,864.589 486.881,870.939C673.72,877.291 681.564,541.571 681.564,539.239C681.564,539.239 659.502,490.737 489.09,492.622C318.679,494.508 296.616,539.239 296.616,539.239Z" fill="#F6F1F1"/>
<path d="M559.418,442.83L401.498,442.83C391.192,442.83 382.837,450.994 382.837,461.065L382.837,463.719C382.837,473.79 391.192,481.954 401.498,481.954L559.418,481.954C569.724,481.954 578.079,473.79 578.079,463.719L578.079,461.065C578.079,450.994 569.724,442.83 559.418,442.83Z" fill="#263238"/>
<rect  x="473.679" y="125.296" width="13.634" height="67.357" fill="#263238"/>
<path d="M679.736,394.204C701.863,394.204 719.8,376.676 719.8,355.055C719.8,333.433 701.863,315.906 679.736,315.906C657.61,315.906 639.672,333.433 639.672,355.055C639.672,376.676 657.61,394.204 679.736,394.204Z" fill="#F6F1F1"/>
<path d="M275.289,391.624C297.416,391.624 315.353,374.096 315.353,352.474C315.353,330.853 297.416,313.325 275.289,313.325C253.162,313.325 235.225,330.853 235.225,352.474C235.225,374.096 253.162,391.624 275.289,391.624Z" fill="#F6F1F1"/>
<path d="M472.562,178.065C472.562,178.065 309.666,176.155 283.921,314.119C258.177,452.084 395.887,454.564 435.519,457.17C453.469,458.36 491.909,458.484 525.829,457.89C600.929,456.624 653.993,442.434 672.043,374.356C674.193,366.374 675.545,358.206 676.081,349.969C680.829,275.243 629.213,174.394 472.562,178.065Z" fill="#F6F1F1"/>
<path d="M590.723,388.051L354.071,391.648C348.167,391.75 342.3,390.713 336.806,388.596C331.312,386.48 326.299,383.325 322.054,379.313C317.809,375.301 314.416,370.511 312.068,365.216C309.72,359.921 308.464,354.225 308.371,348.455C308.27,342.684 309.335,336.951 311.503,331.582C313.672,326.213 316.903,321.315 321.011,317.168C325.118,313.02 330.023,309.704 335.443,307.41C340.863,305.116 346.693,303.889 352.599,303.799L589.251,300.201C595.155,300.096 601.025,301.131 606.519,303.246C612.015,305.362 617.029,308.516 621.275,312.529C625.521,316.541 628.915,321.333 631.261,326.63C633.607,331.926 634.861,337.623 634.951,343.394C635.055,349.166 633.993,354.901 631.825,360.271C629.657,365.642 626.427,370.541 622.319,374.689C618.211,378.838 613.305,382.153 607.883,384.446C602.461,386.739 596.629,387.964 590.723,388.051Z" fill="#263238"/>
<path d="M403.25,343.667C402.699,346.402 401.332,348.915 399.32,350.89C397.307,352.865 394.741,354.212 391.945,354.762C389.15,355.312 386.25,355.04 383.612,353.979C380.975,352.919 378.719,351.118 377.129,348.805C375.539,346.491 374.686,343.769 374.679,340.982C374.672,338.196 375.511,335.47 377.089,333.148C378.667,330.827 380.915,329.016 383.547,327.943C386.178,326.87 389.077,326.583 391.876,327.119C393.735,327.476 395.504,328.186 397.081,329.211C398.659,330.236 400.015,331.554 401.071,333.091C402.128,334.627 402.864,336.352 403.237,338.167C403.611,339.982 403.615,341.851 403.25,343.667Z" fill="#FFFFFF"/>
<path d="M568.507,341.087C567.961,343.824 566.597,346.34 564.587,348.319C562.577,350.298 560.011,351.649 557.215,352.203C554.419,352.756 551.517,352.486 548.877,351.428C546.238,350.37 543.979,348.57 542.387,346.256C540.794,343.943 539.94,341.22 539.931,338.432C539.923,335.644 540.761,332.917 542.34,330.594C543.919,328.272 546.167,326.459 548.8,325.386C551.433,324.313 554.333,324.027 557.133,324.564C560.882,325.284 564.185,327.428 566.318,330.526C568.45,333.624 569.238,337.422 568.507,341.087Z" fill="#FFFFFF"/>
<path d="M544.717,668.445C543.79,680.861 539.116,692.728 531.286,702.548C523.457,712.367 512.823,719.697 500.731,723.612C488.638,727.526 475.629,727.848 463.348,724.538C451.068,721.228 440.068,714.434 431.739,705.015C423.41,695.596 418.126,683.975 416.556,671.622C414.985,659.269 417.199,646.738 422.916,635.614C428.634,624.49 437.598,615.273 448.677,609.127C459.755,602.982 472.449,600.184 485.155,601.088C502.192,602.307 518.037,610.087 529.206,622.718C540.375,635.349 545.954,651.796 544.717,668.445Z" fill="#263238"/>
<path d="M527.275,667.205C526.597,676.254 523.189,684.903 517.481,692.059C511.773,699.214 504.021,704.555 495.207,707.406C486.392,710.257 476.911,710.49 467.961,708.075C459.011,705.66 450.995,700.706 444.926,693.839C438.858,686.972 435.009,678.501 433.868,669.497C432.726,660.493 434.343,651.361 438.513,643.255C442.683,635.148 449.22,628.432 457.296,623.956C465.372,619.48 474.625,617.445 483.885,618.108C490.034,618.544 496.035,620.161 501.545,622.866C507.054,625.57 511.964,629.309 515.994,633.869C520.023,638.429 523.094,643.72 525.03,649.44C526.965,655.16 527.728,661.197 527.275,667.205Z" fill="#FFFFFF"/>
<path d="M504.653,675.541C504.295,673.035 504.151,670.504 504.222,667.974C504.095,663.236 503.993,656.463 503.993,648.127L504.501,649.045L480.356,635.276L481.702,635.276L457.328,648.648C456.668,649.739 458.217,647.184 458.065,647.457L458.065,650.98L458.065,654.528C458.065,656.86 458.065,659.192 457.938,661.474C457.938,666.039 457.76,670.455 457.684,674.722L457.024,673.581L480.889,687.822L479.823,687.822C487.262,683.902 493.406,680.776 497.595,678.642C499.849,677.388 502.201,676.31 504.628,675.417C502.735,676.925 500.694,678.246 498.535,679.362C494.422,681.843 488.379,685.341 480.762,689.633L480.229,689.93L479.696,689.633L455.526,675.864L454.866,675.491L454.866,674.698C454.866,670.43 454.916,666.014 455.018,661.449C455.018,659.167 455.018,656.86 455.018,654.503L455.018,650.98L455.018,647.556C454.866,647.829 456.414,645.298 455.754,646.365L480.204,633.117L480.915,632.745L481.575,633.142L505.415,647.382L505.948,647.705L505.948,648.3C505.669,656.884 505.39,663.781 505.136,668.47C505.201,670.837 505.039,673.204 504.653,675.541Z" fill="#F6F1F1"/>
<path d="M480.508,145.912C492.918,145.912 502.978,136.082 502.978,123.956C502.978,111.83 492.918,102 480.508,102C468.099,102 458.039,111.83 458.039,123.956C458.039,136.082 468.099,145.912 480.508,145.912Z" fill="#F6F1F1"/>
<path d="M444.609,337.167C445.675,337.291 445.142,342.129 448.29,348.753C450.074,352.555 452.671,355.939 455.907,358.677C459.7,361.938 464.421,363.989 469.439,364.557C474.484,364.875 479.51,363.699 483.86,361.183C487.542,359.09 490.726,356.257 493.203,352.871C497.519,346.992 497.9,342.055 498.966,342.129C499.398,342.129 499.83,343.369 499.83,345.702C499.733,349.024 498.865,352.282 497.291,355.228C494.925,359.682 491.428,363.466 487.135,366.219C481.828,369.873 475.363,371.563 468.897,370.986C462.431,370.409 456.386,367.602 451.844,363.068C448.137,359.604 445.409,355.262 443.923,350.465C442.865,347.264 442.586,343.866 443.111,340.541C443.542,338.234 444.202,337.093 444.609,337.167Z" fill="#FFFFFF"/>
<path d="M661.507,401.448C661.253,401.448 664.173,396.982 666.991,389.167C670.496,378.932 672.712,368.319 673.592,357.56C674.609,346.84 674.863,336.063 674.354,325.308C674.176,321.165 673.973,317.866 673.77,315.385C673.598,314.185 673.556,312.971 673.643,311.762C673.968,312.931 674.181,314.127 674.278,315.335C674.633,317.642 674.988,320.992 675.293,325.259C676.089,336.1 675.962,346.988 674.912,357.808C674.019,368.668 671.654,379.363 667.88,389.614C666.685,392.706 665.241,395.7 663.563,398.57C662.964,399.585 662.275,400.548 661.507,401.448Z" fill="#263238"/>
<path d="M284.226,309.505C284.082,310.71 283.819,311.898 283.439,313.053C283.109,314.169 282.753,315.533 282.423,317.171C282.093,318.808 281.586,320.595 281.281,322.654C280.391,327.436 279.797,332.266 279.504,337.118C279.162,343.054 279.247,349.006 279.758,354.931C280.325,360.845 281.309,366.714 282.703,372.496C283.868,377.225 285.327,381.881 287.07,386.438C287.755,388.398 288.542,390.11 289.177,391.648C289.812,393.187 290.421,394.477 290.929,395.519C291.508,396.59 291.984,397.711 292.351,398.868C291.628,397.884 290.999,396.838 290.472,395.742C289.754,394.502 289.101,393.226 288.517,391.921C287.806,390.433 286.943,388.721 286.206,386.761C284.321,382.216 282.76,377.549 281.535,372.793C280.049,366.956 279.014,361.018 278.437,355.03C277.92,349.047 277.869,343.034 278.285,337.043C278.639,332.148 279.335,327.282 280.367,322.48C280.748,320.421 281.281,318.61 281.713,316.997C282.144,315.385 282.55,314.02 282.931,312.904C283.268,311.738 283.701,310.602 284.226,309.505Z" fill="#263238"/>
<path d="M295.753,538.966L296.717,539.239L299.561,540.182L310.377,543.903L318.196,546.632C321.065,547.575 324.239,548.468 327.616,549.485C334.395,551.445 342.037,554 350.72,555.985L364.252,559.384C368.975,560.55 373.951,561.418 379.079,562.51C389.235,564.792 400.381,566.355 412.085,568.191C437.397,571.584 462.907,573.366 488.455,573.525C514.005,573.379 539.515,571.597 564.825,568.191C576.455,566.355 587.523,564.817 597.831,562.51C602.909,561.443 607.987,560.575 612.659,559.409L626.217,556.01C634.875,554.025 642.517,551.47 649.295,549.51C652.671,548.493 655.845,547.6 658.715,546.657L666.535,543.928L677.349,540.206L680.193,539.264C680.513,539.14 680.845,539.049 681.183,538.991L680.245,539.388L677.451,540.454L666.713,544.399L658.715,547.327C655.871,548.294 652.697,549.212 649.321,550.279C642.541,552.313 634.925,554.918 626.241,556.977L612.685,560.451C607.987,561.641 602.985,562.535 597.857,563.651C587.701,565.983 576.531,567.571 564.851,569.456C539.487,572.934 513.915,574.749 488.303,574.89C462.7,574.731 437.136,572.907 411.78,569.432C400.127,567.571 388.93,565.958 378.775,563.626C373.697,562.51 368.619,561.617 363.948,560.426L350.39,556.953C341.707,554.893 334.09,552.288 327.311,550.254C323.934,549.187 320.786,548.269 317.917,547.302L310.123,544.449L299.383,540.504L296.591,539.437C296.297,539.307 296.016,539.149 295.753,538.966Z" fill="#263238"/>
<g opacity="0.3">
<path d="M296.616,539.239C296.616,539.239 318.679,494.582 489.09,492.622C659.502,490.662 681.564,539.239 681.564,539.239C681.564,539.239 509.58,622.077 296.616,539.239Z" fill="#000000"/>
</g>
<path d="M451.921,188.386C451.726,188.404 451.531,188.404 451.337,188.386L449.636,188.56C448.112,188.708 445.878,188.758 443.009,189.081C434.914,189.848 426.881,191.15 418.966,192.976C378.025,202.138 341.914,225.586 317.41,258.919C305.571,274.937 296.608,292.806 290.903,311.762C290.015,314.442 289.532,316.575 289.101,317.99L288.618,319.627C288.573,319.816 288.505,319.999 288.415,320.173C288.382,319.984 288.382,319.791 288.415,319.602C288.415,319.156 288.618,318.61 288.771,317.94C289.126,316.501 289.507,314.343 290.319,311.614C292.439,303.906 295.155,296.367 298.444,289.062C309.296,264.786 325.817,243.332 346.683,226.418C367.638,209.633 392.323,197.874 418.762,192.083C426.725,190.315 434.813,189.145 442.958,188.584C445.853,188.336 448.036,188.361 449.61,188.287L451.337,188.287C451.743,188.336 451.921,188.361 451.921,188.386Z" fill="#FFFFFF"/>
<path d="M292.554,379.368C291.536,377.832 290.75,376.161 290.218,374.406C287.206,366.115 285.803,357.348 286.079,348.555C286.007,346.729 286.23,344.904 286.74,343.146C287.146,343.146 286.587,351.433 288.212,361.455C289.837,371.478 292.935,379.219 292.554,379.368Z" fill="#FFFFFF"/>
<path d="M249.824,366.541C249.824,366.541 249.24,366.144 248.453,365.202C247.331,363.866 246.368,362.409 245.584,360.86C242.873,355.732 241.835,349.914 242.612,344.192C243.388,338.47 245.941,333.117 249.926,328.856C251.093,327.551 252.414,326.385 253.861,325.383C254.358,324.974 254.925,324.655 255.537,324.44C255.689,324.639 253.404,326.152 250.636,329.402C247.004,333.652 244.68,338.822 243.934,344.311C243.188,349.801 244.051,355.384 246.422,360.413C248.199,364.358 250.002,366.392 249.824,366.541Z" fill="#FFFFFF"/>
<path d="M481.956,108.649C479.975,108.436 477.978,108.394 475.989,108.525C473.621,108.728 471.332,109.458 469.298,110.66C467.264,111.862 465.538,113.503 464.254,115.457C462.969,117.412 462.16,119.628 461.888,121.935C461.617,124.243 461.889,126.581 462.685,128.769C463.371,130.584 464.221,132.336 465.224,134.004C465.224,134.004 464.717,133.706 464.006,132.912C463.03,131.764 462.258,130.464 461.721,129.067C460.752,126.75 460.369,124.24 460.603,121.748C460.838,119.256 461.683,116.855 463.068,114.75C464.453,112.645 466.336,110.897 468.559,109.653C470.782,108.41 473.278,107.708 475.837,107.607C477.357,107.504 478.884,107.646 480.356,108.029C481.499,108.202 481.956,108.575 481.956,108.649Z" fill="#FFFFFF"/>
<path d="M703.247,336.448C702.967,336.745 699.032,333.049 693.091,330.27C687.15,327.492 681.742,326.673 681.793,326.276C685.932,326.175 690.024,327.151 693.649,329.104C697.466,330.664 700.781,333.201 703.247,336.448Z" fill="#FFFFFF"/>
<path d="M355.011,770.784C354.895,770.636 354.793,770.478 354.706,770.312L353.868,768.848C353.107,767.434 352.091,765.548 350.771,763.142C350.111,761.902 349.4,760.512 348.587,759.024L346.201,754.062C344.474,750.465 342.545,746.371 340.641,741.658C339.676,739.35 338.66,736.919 337.594,734.413C336.528,731.908 335.614,729.179 334.573,726.425C332.389,720.942 330.536,714.913 328.378,708.661C324.392,696.009 320.482,681.991 317.054,667.106C313.627,652.22 311.138,637.856 309.107,624.781C307.076,611.707 305.756,599.972 304.944,589.899C304.461,584.937 304.157,580.422 303.903,576.453C303.649,572.483 303.42,569.01 303.344,566.281C303.268,563.552 303.192,561.443 303.116,559.855L303.116,558.193C303.088,558.004 303.088,557.812 303.116,557.622C303.145,557.812 303.145,558.004 303.116,558.193L303.268,559.855C303.268,561.418 303.547,563.577 303.725,566.256C303.903,568.935 304.157,572.458 304.512,576.403C304.867,580.348 305.197,584.863 305.756,589.825C306.67,599.749 308.295,611.558 310.199,624.558C312.103,637.558 314.871,651.848 318.222,666.734C321.573,681.619 325.509,695.612 329.393,708.24C331.551,714.491 333.354,720.495 335.487,725.978C336.502,728.757 337.467,731.411 338.432,733.967L341.377,741.261C343.205,745.9 345.084,750.018 346.759,753.665L349.044,758.626C349.781,760.14 350.492,761.53 351.126,762.794L353.97,768.6L354.681,770.114C354.835,770.314 354.947,770.542 355.011,770.784Z" fill="#FFFFFF"/>
<path d="M255.663,568.514C249.469,568.743 243.266,568.527 237.104,567.869C230.913,567.657 224.745,567.018 218.646,565.958C224.841,565.729 231.044,565.945 237.206,566.603C243.397,566.813 249.565,567.452 255.663,568.514Z" fill="#FFFFFF"/>
<path d="M160.15,515.546C156.549,510.421 153.317,505.057 150.477,499.494C147.258,494.136 144.424,488.565 141.997,482.822C145.587,487.958 148.81,493.33 151.645,498.899C154.88,504.244 157.722,509.807 160.15,515.546Z" fill="#FFFFFF"/>
<path d="M445.142,849.007C444.142,848.989 443.147,848.873 442.171,848.66C439.485,848.193 436.831,847.563 434.224,846.775C430.352,845.623 426.569,844.205 422.901,842.532C418.433,840.427 414.138,837.989 410.054,835.238C406.016,832.419 402.212,829.292 398.68,825.885C395.819,823.084 393.171,820.083 390.758,816.904C389.105,814.783 387.604,812.553 386.265,810.231C385.716,809.415 385.265,808.541 384.919,807.626C385.122,807.502 387.255,811.099 391.495,816.358C393.987,819.416 396.675,822.316 399.543,825.042C406.571,831.713 414.634,837.256 423.434,841.465C427.029,843.162 430.726,844.645 434.504,845.906C441.003,848.04 445.193,848.759 445.142,849.007Z" fill="#FFFFFF"/>
<path d="M484.089,734.24C483.501,734.34 482.907,734.398 482.311,734.413C480.623,734.553 478.928,734.603 477.233,734.562C470.92,734.426 464.657,733.432 458.623,731.61C454.454,730.341 450.396,728.748 446.487,726.846C442.005,724.594 437.754,721.927 433.793,718.883C424.616,711.994 417.382,702.937 412.772,692.565C408.162,682.192 406.327,670.845 407.439,659.589C407.853,654.703 408.746,649.868 410.105,645.15C411.322,641.057 412.893,637.073 414.802,633.241C417.556,627.684 421.094,622.531 425.313,617.934C426.444,616.677 427.648,615.484 428.918,614.361C429.338,613.95 429.788,613.569 430.264,613.22C430.264,613.22 428.588,614.982 425.694,618.182C421.631,622.85 418.216,628.022 415.538,633.564C411.545,641.73 409.168,650.56 408.531,659.589C407.502,670.645 409.334,681.777 413.859,691.96C418.384,702.144 425.457,711.052 434.428,717.866C438.273,720.89 442.404,723.548 446.767,725.805C450.59,727.775 454.572,729.435 458.674,730.766C464.618,732.65 470.79,733.759 477.03,734.066C481.626,734.24 484.089,734.091 484.089,734.24Z" fill="#FFFFFF"/>
<path d="M176.704,538.867C176.704,539.065 174.749,538.147 171.626,537.428C167.447,536.534 163.115,536.576 158.956,537.552C154.796,538.527 150.916,540.41 147.608,543.059C145.069,545.119 143.85,546.756 143.672,546.632C144.369,544.99 145.447,543.529 146.821,542.365C150.116,539.41 154.128,537.326 158.478,536.311C162.827,535.295 167.37,535.38 171.676,536.559C173.512,536.94 175.232,537.73 176.704,538.867Z" fill="#FFFFFF"/>
<path d="M551.623,292.188C551.623,292.535 520.445,292.833 482.007,292.833C443.568,292.833 412.364,292.535 412.364,292.188C412.364,291.841 443.542,291.543 482.007,291.543C520.471,291.543 551.623,291.791 551.623,292.188Z" fill="#FFFFFF"/>
<path d="M432.803,447.32C432.422,447.425 432.03,447.484 431.635,447.494L428.233,447.792C426.76,447.916 424.958,448.015 422.85,448.065C420.743,448.114 418.356,448.214 415.716,448.065C410.41,448.065 404.113,447.693 397.131,446.973C389.575,446.114 382.074,444.847 374.662,443.177C367.267,441.444 359.977,439.307 352.827,436.776C347.002,434.692 341.29,432.315 335.715,429.656C333.176,428.565 331.221,427.423 329.368,426.456C327.514,425.488 325.94,424.62 324.671,423.975L321.751,422.238C321.405,422.051 321.081,421.826 320.786,421.568C320.786,421.568 321.193,421.568 321.878,422.015L324.925,423.528C326.22,424.223 327.819,425.042 329.698,426.009C331.577,426.977 333.709,427.969 336.121,429.011C340.895,431.194 346.709,433.526 353.259,435.834C367.496,440.821 382.265,444.217 397.284,445.956C404.189,446.75 410.46,447.196 415.716,447.32C418.255,447.469 420.794,447.32 422.85,447.32C424.907,447.32 426.735,447.32 428.207,447.32L431.609,447.32C432.005,447.256 432.408,447.256 432.803,447.32Z" fill="#FFFFFF"/>
<path d="M635.483,559.111C635.295,559.232 635.091,559.324 634.875,559.384L633.047,560.054L625.987,562.535C622.915,563.626 619.159,564.892 614.715,566.157C610.273,567.422 605.271,569.06 599.609,570.449L590.773,572.731C587.701,573.5 584.451,574.145 581.125,574.915C574.473,576.478 567.263,577.718 559.697,579.132C526.742,584.741 493.251,586.746 459.842,585.111C452.225,584.64 444.837,584.268 438.033,583.498C434.631,583.151 431.33,582.903 428.182,582.481L419.118,581.266C413.329,580.596 408.15,579.579 403.605,578.785C399.061,577.991 395.125,577.247 391.952,576.527L384.64,574.939L382.735,574.493C382.515,574.457 382.301,574.39 382.101,574.294C382.329,574.276 382.558,574.276 382.786,574.294L384.69,574.617L392.053,575.981C395.252,576.602 399.162,577.321 403.732,577.991C408.302,578.661 413.456,579.628 419.245,580.248L428.283,581.365C431.432,581.762 434.732,581.985 438.134,582.308C444.913,583.027 452.225,583.35 459.893,583.796C475.253,584.416 492.137,584.441 509.858,583.424C527.58,582.407 544.311,580.249 559.469,577.817C567.085,576.453 574.245,575.336 580.897,573.748C584.223,573.004 587.473,572.384 590.545,571.64L599.381,569.432C605.043,568.117 610.043,566.579 614.487,565.338C618.929,564.098 622.739,562.857 625.811,561.939L632.945,559.706L634.823,559.161L635.483,559.111Z" fill="#FFFFFF"/>
<defs>
<filter id="filter11_700" x="-100" y="-100" width="684" height="636" filterUnits="userSpaceOnUse" color-interpolation-filters="sRGB">
<feFlood flood-opacity="0" result="BackgroundImageFix"/>
<feBlend mode="normal" in="SourceGraphic" in2="BackgroundImageFix" result="shape"/>
<feGaussianBlur stdDeviation="50" result="0foregroundblur"/>
</filter>
</defs>
</svg>
