<svg width="320" height="358" viewBox="0 0 320 358" fill="none" xmlns="http://www.w3.org/2000/svg" xmlns:xlink="http://www.w3.org/1999/xlink">
<path d="M100.358,212.49L51.956,207.549L31.455,161.662L15.528,165.753C15.528,165.753 27.295,214.246 40.464,221.76C53.634,229.274 98.623,230.622 98.623,230.622L100.358,212.49Z" fill="#F6F1F1"/>
<path d="M110.046,242.929C121.901,242.929 131.512,233.451 131.512,221.76C131.512,210.068 121.901,200.59 110.046,200.59C98.19,200.59 88.579,210.068 88.579,221.76C88.579,233.451 98.19,242.929 110.046,242.929Z" fill="#263238"/>
<path d="M110.046,242.952C105.071,242.952 100.251,241.251 96.406,238.139C92.561,235.027 89.929,230.696 88.958,225.885C87.988,221.074 88.739,216.079 91.084,211.753C93.429,207.427 97.222,204.036 101.818,202.159C106.413,200.282 111.527,200.034 116.287,201.458C121.047,202.882 125.159,205.89 127.923,209.968C130.686,214.047 131.93,218.945 131.443,223.827C130.955,228.709 128.766,233.273 125.249,236.742C123.257,238.717 120.888,240.282 118.278,241.348C115.668,242.414 112.87,242.96 110.046,242.952ZM110.046,200.613C105.085,200.608 100.275,202.299 96.437,205.399C92.599,208.499 89.97,212.815 88.997,217.613C88.024,222.41 88.768,227.391 91.102,231.709C93.436,236.026 97.215,239.411 101.796,241.288C106.378,243.165 111.477,243.418 116.226,242.003C120.975,240.588 125.079,237.592 127.84,233.528C130.601,229.463 131.847,224.579 131.366,219.71C130.885,214.841 128.707,210.287 125.203,206.823C123.218,204.851 120.857,203.287 118.255,202.221C115.653,201.155 112.863,200.608 110.046,200.613Z" fill="#263238"/>
<path d="M43.854,225.828C52.746,225.828 59.954,218.72 59.954,209.951C59.954,201.182 52.746,194.074 43.854,194.074C34.963,194.074 27.755,201.182 27.755,209.951C27.755,218.72 34.963,225.828 43.854,225.828Z" fill="#263238"/>
<path d="M22.331,169.176C29.597,169.176 35.488,163.366 35.488,156.2C35.488,149.033 29.597,143.224 22.331,143.224C15.064,143.224 9.173,149.033 9.173,156.2C9.173,163.366 15.064,169.176 22.331,169.176Z" fill="#263238"/>
<path d="M30.891,147.503L45.046,147.503L45.046,153.529L30.891,153.529C30.145,153.529 29.43,153.234 28.903,152.709C28.376,152.183 28.08,151.471 28.08,150.728L28.08,150.316C28.079,149.947 28.15,149.582 28.291,149.241C28.431,148.899 28.638,148.589 28.899,148.328C29.16,148.066 29.471,147.859 29.812,147.718C30.154,147.576 30.52,147.503 30.891,147.503Z" transform="rotate(326 36.563 150.516)" fill="#263238"/>
<path d="M25.016,136.202L38.644,136.202C38.749,136.202 38.85,136.245 38.925,136.32C38.999,136.395 39.041,136.498 39.041,136.604L39.041,141.838C39.041,141.944 38.999,142.047 38.925,142.122C38.85,142.197 38.749,142.24 38.644,142.24L25.016,142.24C24.279,142.24 23.571,141.943 23.049,141.416C22.527,140.889 22.234,140.173 22.234,139.428L22.234,139.014C22.234,138.269 22.527,137.553 23.049,137.026C23.571,136.499 24.279,136.202 25.016,136.202Z" transform="rotate(220.847 30.638 139.221)" fill="#263238"/>
<path d="M15.512,134.867L29.115,134.867C29.22,134.867 29.321,134.91 29.395,134.985C29.47,135.06 29.512,135.163 29.512,135.269L29.512,140.503C29.512,140.609 29.47,140.712 29.395,140.787C29.321,140.862 29.22,140.905 29.115,140.905L15.512,140.905C14.776,140.905 14.069,140.608 13.548,140.081C13.028,139.554 12.735,138.838 12.735,138.093L12.735,137.679C12.735,136.934 13.028,136.218 13.548,135.691C14.069,135.164 14.776,134.867 15.512,134.867Z" transform="rotate(167.337 21.123 137.886)" fill="#263238"/>
<path d="M3.403,139.343L17.111,139.343C17.217,139.343 17.319,139.385 17.394,139.46C17.469,139.536 17.511,139.637 17.511,139.743L17.511,144.959C17.511,145.065 17.469,145.167 17.394,145.242C17.319,145.317 17.217,145.359 17.111,145.359L3.403,145.359C2.661,145.359 1.949,145.064 1.425,144.538C0.9,144.013 0.605,143.3 0.605,142.557L0.605,142.145C0.605,141.402 0.9,140.689 1.425,140.164C1.949,139.638 2.661,139.343 3.403,139.343Z" transform="rotate(110.573 9.058 142.351)" fill="#263238"/>
<rect  x="289.187" y="227.188" width="15.743" height="105.338" fill="#F6F1F1"/>
<path d="M269.1,245.128C280.955,245.128 290.566,235.65 290.566,223.958C290.566,212.267 280.955,202.789 269.1,202.789C257.245,202.789 247.634,212.267 247.634,223.958C247.634,235.65 257.245,245.128 269.1,245.128Z" fill="#263238"/>
<path d="M269.146,245.173C265.778,245.175 262.457,244.397 259.45,242.902C256.443,241.406 253.834,239.236 251.833,236.564C249.831,233.893 248.494,230.796 247.929,227.521C247.363,224.247 247.585,220.888 248.576,217.714C249.751,213.97 251.956,210.621 254.946,208.039C257.935,205.457 261.592,203.743 265.51,203.087C269.429,202.432 273.454,202.861 277.14,204.326C280.826,205.792 284.027,208.237 286.388,211.389C288.75,214.541 290.178,218.277 290.516,222.182C290.853,226.087 290.086,230.008 288.299,233.509C286.513,237.009 283.777,239.953 280.395,242.012C277.014,244.071 273.12,245.166 269.146,245.173ZM269.146,202.811C265.179,202.815 261.29,203.905 257.913,205.958C254.536,208.012 251.803,210.949 250.018,214.443C248.233,217.937 247.466,221.851 247.802,225.749C248.138,229.648 249.564,233.378 251.921,236.525C254.279,239.671 257.475,242.111 261.155,243.573C264.835,245.035 268.854,245.462 272.765,244.806C276.676,244.149 280.326,242.436 283.308,239.856C286.291,237.276 288.489,233.93 289.658,230.191C291.328,224.834 290.773,219.042 288.117,214.087C285.46,209.132 280.919,205.419 275.489,203.763C273.413,203.129 271.251,202.808 269.077,202.811L269.146,202.811Z" fill="#263238"/>
<path d="M297.059,298.857C305.95,298.857 313.158,291.748 313.158,282.98C313.158,274.211 305.95,267.102 297.059,267.102C288.167,267.102 280.959,274.211 280.959,282.98C280.959,291.748 288.167,298.857 297.059,298.857Z" fill="#263238"/>
<path d="M296.689,347.536C303.956,347.536 309.847,341.727 309.847,334.56C309.847,327.394 303.956,321.584 296.689,321.584C289.422,321.584 283.531,327.394 283.531,334.56C283.531,341.727 289.422,347.536 296.689,347.536Z" fill="#263238"/>
<path d="M303.963,339.258L318.183,339.258L318.183,345.208L303.963,345.208C303.213,345.208 302.493,344.917 301.963,344.398C301.433,343.879 301.135,343.176 301.135,342.442L301.135,342.036C301.133,341.671 301.205,341.31 301.347,340.974C301.488,340.637 301.696,340.33 301.959,340.072C302.222,339.814 302.534,339.609 302.878,339.47C303.222,339.33 303.59,339.258 303.963,339.258Z" transform="rotate(-271.206 309.659 342.233)" fill="#263238"/>
<path d="M295.231,345.996L309.173,345.996C309.28,345.996 309.384,346.037 309.46,346.11C309.536,346.183 309.579,346.282 309.579,346.386L309.579,351.461C309.579,351.565 309.536,351.664 309.46,351.737C309.384,351.81 309.28,351.851 309.173,351.851L295.231,351.851C294.857,351.847 294.488,351.772 294.144,351.631C293.801,351.489 293.49,351.285 293.229,351.029C292.968,350.772 292.762,350.469 292.623,350.137C292.484,349.804 292.415,349.449 292.42,349.09L292.42,348.69C292.429,347.978 292.728,347.298 293.253,346.795C293.778,346.291 294.488,346.005 295.231,345.996Z" transform="rotate(-220.273 300.999 348.924)" fill="#263238"/>
<path d="M278.511,340.163L292.302,340.163C292.355,340.163 292.407,340.173 292.456,340.193C292.504,340.213 292.549,340.243 292.586,340.28C292.623,340.317 292.653,340.361 292.673,340.409C292.694,340.457 292.704,340.509 292.704,340.562L292.704,345.757C292.704,345.809 292.694,345.861 292.673,345.909C292.653,345.958 292.623,346.002 292.586,346.039C292.549,346.076 292.504,346.105 292.456,346.125C292.407,346.145 292.355,346.155 292.302,346.155L278.511,346.155C277.764,346.155 277.048,345.861 276.52,345.338C275.992,344.814 275.696,344.104 275.696,343.364L275.696,342.954C275.696,342.214 275.992,341.504 276.52,340.98C277.048,340.457 277.764,340.163 278.511,340.163Z" transform="rotate(-62.007 284.2 343.159)" fill="#263238"/>
<path d="M287.517,346.007L301.459,346.007C301.567,346.007 301.67,346.048 301.747,346.121C301.823,346.194 301.866,346.293 301.866,346.396L301.866,351.46C301.866,351.563 301.823,351.662 301.747,351.735C301.67,351.808 301.567,351.849 301.459,351.849L287.517,351.849C286.762,351.849 286.038,351.562 285.504,351.051C284.97,350.539 284.67,349.846 284.67,349.123L284.67,348.722C284.673,348.001 284.975,347.31 285.508,346.801C286.042,346.293 286.764,346.007 287.517,346.007Z" transform="rotate(-147.493 293.268 348.928)" fill="#263238"/>
<path d="M103.668,199.729C103.668,199.729 105.219,348.347 189.785,351.248C274.352,354.149 277.902,200.794 277.902,199.729C277.902,199.729 267.916,177.573 190.785,178.435C113.654,179.296 103.668,199.729 103.668,199.729Z" fill="#F6F1F1"/>
<path d="M222.617,155.69L151.139,155.69C146.475,155.69 142.693,159.419 142.693,164.019L142.693,165.232C142.693,169.832 146.475,173.562 151.139,173.562L222.617,173.562C227.281,173.562 231.063,169.832 231.063,165.232L231.063,164.019C231.063,159.419 227.281,155.69 222.617,155.69Z" fill="#263238"/>
<rect  x="183.81" y="10.641" width="6.171" height="30.768" fill="#263238"/>
<path d="M277.075,133.477C287.09,133.477 295.209,125.471 295.209,115.594C295.209,105.718 287.09,97.711 277.075,97.711C267.06,97.711 258.941,105.718 258.941,115.594C258.941,125.471 267.06,133.477 277.075,133.477Z" fill="#F6F1F1"/>
<path d="M94.015,132.299C104.03,132.299 112.148,124.292 112.148,114.416C112.148,104.539 104.03,96.533 94.015,96.533C84,96.533 75.881,104.539 75.881,114.416C75.881,124.292 84,132.299 94.015,132.299Z" fill="#F6F1F1"/>
<path d="M183.304,34.746C183.304,34.746 109.574,33.874 97.922,96.895C86.27,159.917 148.6,161.05 166.538,162.24C174.663,162.784 192.061,162.841 207.414,162.569C241.405,161.991 265.423,155.508 273.593,124.411C274.566,120.765 275.178,117.034 275.42,113.271C277.569,79.137 254.207,33.069 183.304,34.746Z" fill="#F6F1F1"/>
<path d="M236.786,130.667L129.673,132.31C127.001,132.357 124.345,131.883 121.858,130.916C119.372,129.949 117.103,128.508 115.181,126.676C113.26,124.843 111.724,122.655 110.662,120.236C109.599,117.817 109.03,115.215 108.988,112.58C108.943,109.944 109.425,107.325 110.406,104.872C111.388,102.42 112.85,100.182 114.709,98.288C116.569,96.393 118.788,94.879 121.242,93.831C123.695,92.783 126.334,92.222 129.007,92.181L236.119,90.538C238.792,90.49 241.448,90.962 243.936,91.929C246.423,92.895 248.693,94.336 250.614,96.169C252.536,98.002 254.072,100.191 255.134,102.61C256.196,105.029 256.764,107.632 256.804,110.268C256.851,112.904 256.37,115.524 255.389,117.977C254.408,120.43 252.946,122.668 251.087,124.563C249.227,126.458 247.007,127.973 244.553,129.02C242.099,130.067 239.459,130.627 236.786,130.667Z" fill="#263238"/>
<path d="M151.932,110.393C151.683,111.642 151.064,112.79 150.153,113.692C149.243,114.594 148.081,115.21 146.816,115.461C145.55,115.712 144.238,115.588 143.044,115.103C141.85,114.619 140.829,113.796 140.109,112.739C139.39,111.683 139.004,110.439 139.001,109.166C138.997,107.893 139.377,106.648 140.091,105.588C140.806,104.527 141.823,103.7 143.014,103.21C144.205,102.72 145.517,102.589 146.784,102.834C147.625,102.996 148.426,103.321 149.14,103.789C149.854,104.257 150.468,104.859 150.946,105.561C151.424,106.263 151.757,107.051 151.927,107.88C152.096,108.709 152.098,109.563 151.932,110.393Z" fill="#FFFFFF"/>
<path d="M226.731,109.214C226.484,110.464 225.866,111.614 224.956,112.518C224.047,113.421 222.885,114.039 221.62,114.292C220.354,114.544 219.041,114.421 217.846,113.938C216.651,113.454 215.629,112.632 214.908,111.575C214.187,110.519 213.801,109.275 213.797,108.001C213.793,106.728 214.172,105.482 214.887,104.421C215.602,103.36 216.619,102.532 217.811,102.042C219.003,101.551 220.315,101.421 221.582,101.666C223.279,101.995 224.775,102.975 225.74,104.39C226.705,105.805 227.061,107.54 226.731,109.214Z" fill="#FFFFFF"/>
<path d="M215.963,258.75C215.543,264.421 213.428,269.842 209.884,274.328C206.34,278.813 201.527,282.162 196.054,283.95C190.58,285.738 184.692,285.885 179.134,284.373C173.576,282.861 168.597,279.757 164.827,275.455C161.057,271.152 158.666,265.844 157.955,260.201C157.244,254.558 158.246,248.834 160.834,243.753C163.421,238.672 167.479,234.461 172.493,231.654C177.507,228.846 183.253,227.569 189.004,227.982C196.715,228.538 203.887,232.092 208.942,237.862C213.998,243.632 216.523,251.145 215.963,258.75Z" fill="#263238"/>
<path d="M208.068,258.183C207.762,262.317 206.219,266.268 203.635,269.536C201.052,272.805 197.543,275.245 193.554,276.547C189.564,277.849 185.273,277.956 181.222,276.853C177.171,275.749 173.543,273.486 170.796,270.35C168.049,267.213 166.307,263.343 165.791,259.23C165.274,255.117 166.006,250.946 167.893,247.243C169.781,243.54 172.739,240.472 176.395,238.427C180.05,236.383 184.238,235.453 188.429,235.756C191.213,235.955 193.929,236.694 196.422,237.929C198.916,239.165 201.138,240.873 202.962,242.956C204.786,245.038 206.176,247.455 207.052,250.068C207.928,252.681 208.274,255.439 208.068,258.183Z" fill="#FFFFFF"/>
<path d="M197.829,261.991C197.667,260.846 197.602,259.69 197.634,258.535C197.576,256.37 197.531,253.276 197.531,249.468L197.76,249.888L186.832,243.598L187.441,243.598L176.409,249.706C176.11,250.205 176.811,249.038 176.742,249.162L176.742,250.772L176.742,252.392C176.742,253.458 176.742,254.523 176.685,255.565C176.685,257.651 176.605,259.668 176.57,261.617L176.271,261.096L187.073,267.601L186.591,267.601C189.958,265.81 192.739,264.382 194.635,263.408C195.655,262.835 196.719,262.342 197.818,261.934C196.961,262.623 196.037,263.227 195.06,263.736C193.198,264.87 190.463,266.467 187.016,268.428L186.775,268.564L186.533,268.428L175.593,262.138L175.294,261.968L175.294,261.606C175.294,259.657 175.317,257.639 175.363,255.554C175.363,254.511 175.363,253.458 175.363,252.381L175.363,250.772L175.363,249.208C175.294,249.332 175.995,248.176 175.697,248.664L186.763,242.612L187.085,242.442L187.384,242.623L198.174,249.128L198.415,249.276L198.415,249.548C198.289,253.469 198.163,256.619 198.048,258.761C198.077,259.842 198.004,260.924 197.829,261.991Z" fill="#F6F1F1"/>
<path d="M186.901,20.059C192.518,20.059 197.071,15.569 197.071,10.029C197.071,4.49 192.518,0 186.901,0C181.284,0 176.731,4.49 176.731,10.029C176.731,15.569 181.284,20.059 186.901,20.059Z" fill="#F6F1F1"/>
<path d="M170.652,107.423C171.135,107.48 170.893,109.69 172.318,112.716C173.126,114.453 174.301,115.998 175.766,117.249C177.482,118.738 179.619,119.676 181.891,119.935C184.174,120.08 186.449,119.543 188.418,118.394C190.084,117.438 191.526,116.144 192.647,114.597C194.6,111.911 194.773,109.656 195.255,109.69C195.451,109.69 195.646,110.257 195.646,111.322C195.602,112.84 195.209,114.328 194.497,115.674C193.426,117.708 191.843,119.437 189.9,120.694C187.498,122.363 184.572,123.135 181.645,122.872C178.719,122.608 175.983,121.326 173.927,119.255C172.249,117.672 171.014,115.689 170.342,113.498C169.863,112.036 169.737,110.483 169.974,108.965C170.169,107.911 170.468,107.389 170.652,107.423Z" fill="#FFFFFF"/>
<path d="M268.824,136.787C268.709,136.787 270.031,134.747 271.306,131.177C272.893,126.502 273.896,121.653 274.294,116.739C274.754,111.842 274.869,106.919 274.639,102.006C274.558,100.114 274.466,98.606 274.375,97.473C274.297,96.925 274.278,96.371 274.317,95.819C274.464,96.353 274.56,96.899 274.604,97.451C274.765,98.505 274.926,100.034 275.064,101.984C275.424,106.936 275.367,111.909 274.892,116.852C274.487,121.813 273.417,126.698 271.708,131.381C271.168,132.793 270.514,134.161 269.755,135.472C269.483,135.936 269.172,136.375 268.824,136.787Z" fill="#263238"/>
<path d="M98.06,94.787C97.995,95.338 97.876,95.88 97.704,96.408C97.554,96.918 97.393,97.541 97.244,98.289C97.095,99.037 96.865,99.853 96.727,100.794C96.324,102.978 96.055,105.184 95.922,107.401C95.768,110.112 95.806,112.831 96.037,115.538C96.294,118.239 96.74,120.92 97.37,123.561C97.898,125.722 98.558,127.849 99.347,129.93C99.657,130.826 100.013,131.608 100.301,132.31C100.588,133.013 100.864,133.602 101.094,134.078C101.356,134.567 101.571,135.08 101.737,135.608C101.41,135.159 101.126,134.681 100.887,134.18C100.562,133.614 100.267,133.031 100.002,132.435C99.68,131.755 99.289,130.973 98.956,130.078C98.103,128.002 97.397,125.87 96.842,123.697C96.169,121.031 95.701,118.319 95.44,115.583C95.206,112.85 95.183,110.103 95.371,107.367C95.531,105.131 95.846,102.908 96.313,100.714C96.486,99.774 96.727,98.947 96.922,98.21C97.118,97.473 97.301,96.85 97.474,96.34C97.626,95.808 97.822,95.288 98.06,94.787Z" fill="#263238"/>
<path d="M103.277,199.604L103.714,199.729L105.001,200.159L109.896,201.859L113.436,203.106C114.734,203.537 116.171,203.945 117.699,204.409C120.767,205.305 124.226,206.472 128.156,207.378L134.281,208.931C136.419,209.464 138.671,209.86 140.992,210.359C145.589,211.402 150.634,212.116 155.931,212.954C167.388,214.504 178.934,215.318 190.498,215.391C202.062,215.324 213.608,214.51 225.064,212.954C230.327,212.116 235.338,211.413 240.003,210.359C242.302,209.872 244.6,209.475 246.714,208.942L252.851,207.39C256.769,206.483 260.228,205.316 263.297,204.421C264.825,203.956 266.261,203.548 267.56,203.117L271.099,201.871L275.995,200.171L277.282,199.74C277.427,199.684 277.577,199.642 277.73,199.616L277.305,199.797L276.041,200.284L271.18,202.086L267.56,203.423C266.273,203.865 264.837,204.285 263.308,204.772C260.24,205.701 256.792,206.891 252.862,207.832L246.726,209.418C244.6,209.962 242.336,210.37 240.015,210.88C235.418,211.946 230.362,212.671 225.076,213.532C213.596,215.121 202.021,215.95 190.429,216.014C178.84,215.941 167.27,215.109 155.793,213.521C150.519,212.671 145.451,211.934 140.854,210.869C138.556,210.359 136.258,209.951 134.143,209.407L128.007,207.82C124.077,206.88 120.629,205.69 117.561,204.761C116.033,204.273 114.608,203.854 113.309,203.412L109.781,202.109L104.92,200.307L103.656,199.82C103.523,199.76 103.396,199.688 103.277,199.604Z" fill="#263238"/>
<g opacity="0.3">
<path d="M103.668,199.729C103.668,199.729 113.654,179.33 190.785,178.435C267.916,177.539 277.902,199.729 277.902,199.729C277.902,199.729 200.059,237.569 103.668,199.729Z" fill="#000000"/>
</g>
<path d="M173.962,39.461C173.874,39.469 173.785,39.469 173.697,39.461L172.927,39.54C172.238,39.608 171.227,39.631 169.928,39.778C166.264,40.129 162.628,40.723 159.046,41.557C140.515,45.743 124.17,56.453 113.079,71.68C107.721,78.997 103.664,87.16 101.082,95.819C100.68,97.043 100.462,98.017 100.266,98.663L100.048,99.411C100.027,99.498 99.996,99.581 99.956,99.66C99.941,99.574 99.941,99.486 99.956,99.4C99.956,99.196 100.048,98.946 100.117,98.641C100.278,97.983 100.45,96.997 100.818,95.751C101.777,92.23 103.006,88.786 104.495,85.449C109.407,74.36 116.885,64.56 126.329,56.834C135.814,49.166 146.987,43.795 158.954,41.149C162.557,40.342 166.219,39.808 169.905,39.551C171.215,39.438 172.203,39.449 172.916,39.415L173.697,39.415C173.881,39.438 173.962,39.449 173.962,39.461Z" fill="#FFFFFF"/>
<path d="M101.829,126.7C101.369,125.999 101.013,125.235 100.772,124.434C99.409,120.647 98.774,116.642 98.899,112.625C98.866,111.791 98.967,110.958 99.198,110.155C99.381,110.155 99.129,113.94 99.864,118.518C100.6,123.097 102.002,126.632 101.829,126.7Z" fill="#FFFFFF"/>
<path d="M82.489,120.841C82.489,120.841 82.225,120.66 81.868,120.229C81.361,119.619 80.925,118.954 80.57,118.246C79.343,115.904 78.873,113.246 79.224,110.632C79.576,108.018 80.731,105.573 82.535,103.627C83.063,103.031 83.661,102.498 84.316,102.04C84.541,101.854 84.798,101.708 85.074,101.61C85.143,101.7 84.109,102.392 82.857,103.876C81.213,105.818 80.161,108.179 79.823,110.687C79.486,113.194 79.876,115.745 80.949,118.042C81.753,119.844 82.569,120.773 82.489,120.841Z" fill="#FFFFFF"/>
<path d="M187.556,3.037C186.659,2.94 185.756,2.921 184.855,2.981C183.784,3.073 182.748,3.407 181.827,3.956C180.906,4.505 180.125,5.254 179.544,6.147C178.962,7.04 178.596,8.052 178.473,9.106C178.35,10.161 178.474,11.228 178.834,12.228C179.144,13.057 179.529,13.858 179.983,14.619C179.983,14.619 179.753,14.483 179.431,14.121C178.99,13.596 178.64,13.002 178.397,12.364C177.959,11.306 177.785,10.159 177.892,9.021C177.998,7.882 178.38,6.786 179.007,5.824C179.634,4.863 180.486,4.064 181.492,3.496C182.498,2.928 183.628,2.607 184.787,2.561C185.474,2.514 186.166,2.579 186.832,2.754C187.349,2.833 187.556,3.003 187.556,3.037Z" fill="#FFFFFF"/>
<path d="M287.716,107.095C287.59,107.231 285.809,105.542 283.12,104.273C280.431,103.004 277.983,102.63 278.006,102.448C279.879,102.402 281.731,102.848 283.372,103.74C285.1,104.453 286.6,105.612 287.716,107.095Z" fill="#FFFFFF"/>
<path d="M130.098,305.498C130.046,305.43 130,305.358 129.961,305.282L129.581,304.614C129.237,303.968 128.777,303.106 128.179,302.007C127.881,301.44 127.559,300.806 127.191,300.126L126.111,297.859C125.329,296.216 124.456,294.346 123.594,292.193C123.157,291.139 122.698,290.028 122.215,288.884C121.732,287.739 121.319,286.493 120.848,285.235C119.859,282.73 119.02,279.976 118.044,277.12C116.24,271.341 114.47,264.938 112.918,258.138C111.367,251.338 110.241,244.777 109.322,238.804C108.402,232.832 107.805,227.472 107.437,222.87C107.219,220.604 107.081,218.541 106.966,216.728C106.851,214.915 106.748,213.328 106.713,212.082C106.679,210.835 106.644,209.872 106.61,209.146L106.61,208.387C106.597,208.301 106.597,208.213 106.61,208.126C106.623,208.213 106.623,208.301 106.61,208.387L106.679,209.146C106.679,209.86 106.805,210.846 106.885,212.07C106.966,213.294 107.081,214.903 107.242,216.705C107.403,218.507 107.552,220.57 107.805,222.836C108.218,227.37 108.954,232.764 109.816,238.702C110.678,244.641 111.93,251.168 113.447,257.968C114.964,264.768 116.745,271.159 118.503,276.928C119.48,279.784 120.296,282.526 121.261,285.031C121.721,286.3 122.158,287.513 122.594,288.68L123.927,292.012C124.755,294.131 125.605,296.012 126.364,297.678L127.398,299.945C127.731,300.636 128.053,301.271 128.34,301.848L129.627,304.5L129.949,305.192C130.019,305.283 130.069,305.387 130.098,305.498Z" fill="#FFFFFF"/>
<path d="M85.132,213.102C82.328,213.206 79.521,213.108 76.732,212.807C73.93,212.71 71.138,212.418 68.377,211.934C71.181,211.83 73.989,211.928 76.778,212.229C79.58,212.325 82.372,212.616 85.132,213.102Z" fill="#FFFFFF"/>
<path d="M41.901,188.906C40.271,186.565 38.808,184.115 37.523,181.574C36.066,179.126 34.783,176.581 33.684,173.958C35.309,176.304 36.768,178.758 38.051,181.302C39.515,183.743 40.802,186.285 41.901,188.906Z" fill="#FFFFFF"/>
<path d="M170.893,341.23C170.441,341.222 169.99,341.169 169.549,341.071C168.333,340.858 167.132,340.57 165.952,340.21C164.199,339.684 162.487,339.036 160.827,338.272C158.805,337.311 156.86,336.197 155.012,334.94C153.184,333.653 151.463,332.224 149.864,330.668C148.569,329.388 147.37,328.017 146.278,326.565C145.53,325.597 144.851,324.578 144.244,323.517C143.996,323.144 143.792,322.745 143.635,322.327C143.727,322.27 144.693,323.914 146.612,326.316C147.74,327.713 148.956,329.038 150.254,330.283C153.435,333.33 157.085,335.862 161.068,337.785C162.695,338.56 164.368,339.237 166.078,339.813C169.02,340.788 170.916,341.117 170.893,341.23Z" fill="#FFFFFF"/>
<path d="M188.521,288.804C188.256,288.85 187.987,288.877 187.717,288.884C186.953,288.948 186.185,288.97 185.419,288.952C182.561,288.89 179.726,288.436 176.995,287.603C175.108,287.024 173.272,286.296 171.502,285.427C169.474,284.398 167.55,283.18 165.757,281.79C161.603,278.643 158.329,274.506 156.242,269.768C154.155,265.029 153.325,259.846 153.828,254.704C154.016,252.473 154.42,250.264 155.035,248.108C155.586,246.239 156.297,244.419 157.161,242.669C158.407,240.13 160.009,237.776 161.918,235.676C162.431,235.102 162.975,234.558 163.55,234.044C163.74,233.857 163.944,233.682 164.159,233.523C164.159,233.523 163.401,234.328 162.091,235.79C160.252,237.922 158.706,240.285 157.494,242.816C155.687,246.546 154.611,250.58 154.323,254.704C153.857,259.755 154.686,264.84 156.734,269.491C158.782,274.143 161.984,278.212 166.044,281.325C167.784,282.706 169.654,283.921 171.629,284.951C173.359,285.852 175.162,286.61 177.018,287.218C179.709,288.078 182.502,288.585 185.327,288.725C187.407,288.804 188.521,288.736 188.521,288.804Z" fill="#FFFFFF"/>
<path d="M49.393,199.559C49.393,199.65 48.508,199.23 47.095,198.902C45.204,198.493 43.243,198.513 41.36,198.958C39.478,199.404 37.722,200.264 36.224,201.474C35.075,202.415 34.523,203.163 34.443,203.106C34.758,202.356 35.246,201.689 35.868,201.157C37.359,199.807 39.175,198.855 41.144,198.391C43.113,197.927 45.169,197.966 47.118,198.505C47.949,198.679 48.727,199.04 49.393,199.559Z" fill="#FFFFFF"/>
<path d="M219.089,86.877C219.089,87.036 204.977,87.172 187.579,87.172C170.181,87.172 156.058,87.036 156.058,86.877C156.058,86.718 170.169,86.582 187.579,86.582C204.989,86.582 219.089,86.696 219.089,86.877Z" fill="#FFFFFF"/>
<path d="M165.308,157.741C165.136,157.789 164.959,157.816 164.78,157.82L163.24,157.956C162.573,158.013 161.758,158.058 160.804,158.081C159.85,158.104 158.77,158.149 157.575,158.081C155.173,158.081 152.323,157.911 149.163,157.582C145.743,157.19 142.348,156.611 138.993,155.848C135.646,155.057 132.346,154.081 129.11,152.925C126.473,151.972 123.888,150.887 121.365,149.672C120.216,149.173 119.331,148.652 118.492,148.21C117.653,147.768 116.941,147.371 116.366,147.077L115.045,146.284C114.888,146.198 114.741,146.095 114.608,145.978C114.608,145.978 114.792,145.978 115.102,146.182L116.481,146.873C117.067,147.19 117.791,147.564 118.641,148.006C119.492,148.448 120.457,148.901 121.549,149.377C123.709,150.375 126.341,151.44 129.305,152.494C135.749,154.772 142.434,156.323 149.232,157.118C152.357,157.48 155.196,157.684 157.575,157.741C158.724,157.809 159.873,157.741 160.804,157.741C161.735,157.741 162.562,157.741 163.228,157.741L164.768,157.741C164.947,157.712 165.13,157.712 165.308,157.741Z" fill="#FFFFFF"/>
<path d="M257.045,208.806C256.96,208.862 256.867,208.904 256.77,208.931L255.942,209.237L252.748,210.37C251.357,210.869 249.656,211.447 247.645,212.025C245.634,212.603 243.37,213.351 240.808,213.986L236.809,215.028C235.418,215.379 233.947,215.674 232.442,216.025C229.431,216.739 226.168,217.306 222.743,217.952C207.827,220.514 192.668,221.43 177.547,220.683C174.099,220.468 170.755,220.298 167.676,219.947C166.136,219.788 164.642,219.675 163.217,219.482L159.114,218.927C156.494,218.621 154.15,218.156 152.093,217.793C150.036,217.431 148.255,217.091 146.819,216.762L143.509,216.037L142.647,215.833C142.547,215.817 142.451,215.786 142.36,215.742C142.463,215.734 142.567,215.734 142.67,215.742L143.532,215.889L146.864,216.513C148.312,216.796 150.082,217.125 152.151,217.431C154.219,217.737 156.552,218.179 159.172,218.462L163.263,218.972C164.688,219.153 166.182,219.255 167.722,219.403C170.79,219.731 174.099,219.879 177.57,220.083C184.522,220.366 192.164,220.377 200.185,219.913C208.206,219.448 215.779,218.462 222.64,217.351C226.087,216.728 229.328,216.218 232.339,215.493C233.844,215.153 235.315,214.869 236.705,214.529L240.704,213.521C243.267,212.92 245.531,212.218 247.542,211.651C249.553,211.084 251.277,210.518 252.667,210.098L255.896,209.078L256.747,208.829L257.045,208.806Z" fill="#FFFFFF"/>
</svg>
